<svg xmlns="http://www.w3.org/2000/svg" width="800" height="300" viewBox="0 0 800 300"><rect width="100%" height="100%" fill="#DDDDDD"/><path fill="#999999" d="M192.095 181.665q3.54 0 6.21-1.01 2.67-1.02 4.49-2.81 1.83-1.8 2.76-4.3.93-2.49.93-5.39 0-6.9-3.83-10.44t-10.56-3.54-10.55 3.54q-3.83 3.54-3.83 10.44 0 2.9.93 5.39.92 2.5 2.75 4.3 1.83 1.79 4.5 2.81 2.66 1.01 6.2 1.01m0-63.74q-3.19 0-5.51.99-2.32.98-3.86 2.64-1.53 1.65-2.26 3.8-.72 2.14-.72 4.52 0 2.49.61 4.84t2.06 4.18 3.82 2.93q2.38 1.1 5.86 1.1t5.86-1.1 3.83-2.93 2.06-4.18.61-4.84q0-2.38-.76-4.52-.75-2.15-2.26-3.8-1.51-1.66-3.83-2.64-2.32-.99-5.51-.99m14.15 30.28q7.66 2.49 11.31 7.62 3.66 5.14 3.66 12.56 0 5.57-2.12 10.09-2.12 4.53-5.94 7.72-3.83 3.19-9.2 4.93-5.36 1.74-11.86 1.74-6.49 0-11.86-1.74-5.36-1.74-9.19-4.93t-5.95-7.72q-2.11-4.52-2.11-10.09 0-7.42 3.65-12.56 3.65-5.13 11.31-7.62-6.09-2.55-9.14-7.25-3.04-4.7-3.04-11.31 0-4.76 1.94-8.88 1.95-4.11 5.43-7.16 3.48-3.04 8.32-4.76 4.84-1.71 10.64-1.71t10.64 1.71q4.85 1.72 8.33 4.76 3.48 3.05 5.42 7.16 1.94 4.12 1.94 8.88 0 6.61-3.04 11.31-3.05 4.7-9.14 7.25m83.87 1.8q0 10.96-2.35 19.05t-6.49 13.37q-4.15 5.28-9.81 7.86-5.65 2.58-12.2 2.58-6.56 0-12.16-2.58-5.59-2.58-9.71-7.86t-6.44-13.37-2.32-19.05q0-11.02 2.32-19.09 2.32-8.06 6.44-13.34 4.12-5.27 9.71-7.86 5.6-2.58 12.16-2.58 6.55 0 12.2 2.58 5.66 2.59 9.81 7.86 4.14 5.28 6.49 13.34 2.35 8.07 2.35 19.09m-14.79 0q0-9.11-1.33-15.08-1.34-5.98-3.57-9.52-2.23-3.53-5.13-4.95-2.9-1.43-6.03-1.43-3.08 0-5.95 1.43-2.87 1.42-5.07 4.95-2.21 3.54-3.51 9.52-1.31 5.97-1.31 15.08 0 9.1 1.31 15.08 1.3 5.97 3.51 9.51 2.2 3.54 5.07 4.96t5.95 1.42q3.13 0 6.03-1.42t5.13-4.96 3.57-9.51q1.33-5.98 1.33-15.08m82.07 0q0 10.96-2.35 19.05t-6.49 13.37q-4.15 5.28-9.81 7.86-5.65 2.58-12.2 2.58-6.56 0-12.16-2.58-5.59-2.58-9.71-7.86t-6.44-13.37-2.32-19.05q0-11.02 2.32-19.09 2.32-8.06 6.44-13.34 4.12-5.27 9.71-7.86 5.6-2.58 12.16-2.58 6.55 0 12.2 2.58 5.66 2.59 9.81 7.86 4.14 5.28 6.49 13.34 2.35 8.07 2.35 19.09m-14.79 0q0-9.11-1.33-15.08-1.34-5.98-3.57-9.52-2.23-3.53-5.13-4.95-2.9-1.43-6.03-1.43-3.08 0-5.95 1.43-2.87 1.42-5.07 4.95-2.21 3.54-3.51 9.52-1.31 5.97-1.31 15.08 0 9.1 1.31 15.08 1.3 5.97 3.51 9.51 2.2 3.54 5.07 4.96t5.95 1.42q3.13 0 6.03-1.42t5.13-4.96 3.57-9.51q1.33-5.98 1.33-15.08m67.46-1.86 27.72 43.79h-15.54q-1.63 0-2.59-.81-.95-.81-1.53-1.86l-19.43-32.19q-.47 1.45-1.1 2.5l-18.62 29.69q-.7.99-1.6 1.83t-2.35.84h-14.55l27.84-43.15-26.74-40.72h15.54q1.63 0 2.35.44.73.43 1.36 1.42l19.09 30.74q.58-1.45 1.39-2.9l17.51-27.55q.64-1.1 1.4-1.63.75-.52 1.91-.52h14.91zm41.81-15.37-7.54-1.33q.87-6.04 3.37-10.59 2.49-4.55 6.23-7.6 3.74-3.04 8.59-4.58 4.84-1.54 10.41-1.54 5.8 0 10.47 1.66 4.67 1.65 7.97 4.58 3.31 2.93 5.08 6.87 1.77 3.95 1.77 8.53 0 4-.9 7.04-.9 3.05-2.58 5.31-1.69 2.26-4.18 3.83t-5.63 2.61q7.54 2.38 11.26 7.25 3.71 4.87 3.71 12.24 0 6.26-2.32 11.08-2.32 4.81-6.27 8.09-3.94 3.27-9.13 4.96-5.19 1.68-10.99 1.68-6.32 0-11.02-1.45t-8.18-4.29q-3.48-2.85-5.92-6.96-2.43-4.12-4.17-9.52l6.32-2.61q2.49-1.04 4.67-.55 2.17.5 3.16 2.35 1.04 2.03 2.29 4 1.25 1.98 2.99 3.51 1.74 1.54 4.09 2.5 2.35.95 5.59.95 3.66 0 6.38-1.19 2.73-1.18 4.56-3.1 1.82-1.91 2.72-4.26t.9-4.73q0-3.01-.64-5.48-.63-2.46-2.66-4.2t-5.83-2.73-10.18-.99v-10.2q5.28-.06 8.76-.99t5.53-2.58q2.06-1.65 2.88-3.97.81-2.32.81-5.11 0-5.91-3.31-8.99-3.3-3.07-8.81-3.07-2.56 0-4.7.72-2.15.73-3.86 2.03-1.71 1.31-2.87 3.05t-1.74 3.83q-.99 2.66-2.58 3.53-1.6.87-4.5.41m117.86 17.23q0 10.96-2.35 19.05t-6.5 13.37q-4.14 5.28-9.8 7.86-5.65 2.58-12.21 2.58-6.55 0-12.15-2.58-5.59-2.58-9.71-7.86t-6.44-13.37-2.32-19.05q0-11.02 2.32-19.09 2.32-8.06 6.44-13.34 4.12-5.27 9.71-7.86 5.6-2.58 12.15-2.58 6.56 0 12.21 2.58 5.66 2.59 9.8 7.86 4.15 5.28 6.5 13.34 2.35 8.07 2.35 19.09m-14.79 0q0-9.11-1.33-15.08-1.34-5.98-3.57-9.52-2.23-3.53-5.13-4.95-2.9-1.43-6.04-1.43-3.07 0-5.94 1.43-2.87 1.42-5.08 4.95-2.2 3.54-3.51 9.52-1.3 5.97-1.3 15.08 0 9.1 1.3 15.08 1.31 5.97 3.51 9.51 2.21 3.54 5.08 4.96t5.94 1.42q3.14 0 6.04-1.42t5.13-4.96 3.57-9.51q1.33-5.98 1.33-15.08m82.07 0q0 10.96-2.35 19.05t-6.5 13.37q-4.14 5.28-9.8 7.86-5.65 2.58-12.21 2.58-6.55 0-12.15-2.58-5.59-2.58-9.71-7.86t-6.44-13.37-2.32-19.05q0-11.02 2.32-19.09 2.32-8.06 6.44-13.34 4.12-5.27 9.71-7.86 5.6-2.58 12.15-2.58 6.56 0 12.21 2.58 5.66 2.59 9.8 7.86 4.15 5.28 6.5 13.34 2.35 8.07 2.35 19.09m-14.79 0q0-9.11-1.33-15.08-1.34-5.98-3.57-9.52-2.23-3.53-5.13-4.95-2.9-1.43-6.04-1.43-3.07 0-5.94 1.43-2.87 1.42-5.08 4.95-2.2 3.54-3.51 9.52-1.3 5.97-1.3 15.08 0 9.1 1.3 15.08 1.31 5.97 3.51 9.51 2.21 3.54 5.08 4.96t5.94 1.42q3.14 0 6.04-1.42t5.13-4.96 3.57-9.51q1.33-5.98 1.33-15.08"/></svg>